# xmcd CD database file
# Copyright (C) 1996 Ti Kan
#
# Track frame offsets:
#	150
#	17030
#	36047
#	51147
#	69325
#	85527
#	104645
#	123740
#	138295
#	155635
# Disc length: 2355 seconds
#
# Revision: 1
# Processed by: cddbd v1.5.2PL0 Copyright (c) Steve Scherf et al.
# Submitted via: CDCOPY 4.744
#
DISCID=8109310a
DTITLE=The Gilbertos - Deite-se ao meu lado
DYEAR=1900
DGENRE=
TTITLE0=Mundo de maravilhas
TTITLE1=Dia D
TTITLE2=Porteira (Da vida)
TTITLE3=Pode me ligar
TTITLE4=Noite de cristal
TTITLE5=Lá vem vocês
TTITLE6=Fantasmas
TTITLE7=Um hippie
TTITLE8=Ases do espaço
TTITLE9=Goodbye, Hombre
EXTD=
EXTT0=
EXTT1=
EXTT2=
EXTT3=
EXTT4=
EXTT5=
EXTT6=
EXTT7=
EXTT8=
EXTT9=
PLAYORDER=
